<svg id="Filled_Expand" enable-background="new 0 0 64 64" height="512" viewBox="0 0 64 64" width="512" xmlns="http://www.w3.org/2000/svg"><path d="m55 40.5c0-9.113-10.745-16.5-24-16.5-3.271 0-6.388.451-9.229 1.266l-6.771-5.266c-2.173 1.862-3.213 4.725-2.742 7.547l.388 2.326c-2.164 1.765-3.796 3.845-4.735 6.127h-4.911v4.75l4 7.25h2.625c1.79 2.406 4.411 4.469 7.606 6.011l-3.171 8.989h9l2.28-6.466c1.816.302 3.71.466 5.66.466s3.844-.164 5.659-.466l2.281 6.466h9l-3.17-8.989c6.184-2.985 10.23-7.922 10.23-13.511z" fill="#ffde66"/><path d="m23.999 45.7c1.658 2.028 4.196 3.318 7.034 3.3 4.957-.032 8.949-4.042 8.917-8.957s-4.076-8.874-9.032-8.843-8.95 4.042-8.918 8.957c.009 1.378.333 2.68.904 3.841z" fill="#fffefa"/><path d="m61 9-1.352 7.661c-1.059 6-4.36 11.373-9.235 15.029l-4.413 3.31-4.543-3.452c-4.811-3.655-8.066-8.991-9.116-14.942l-1.341-7.606 15-8z" fill="#bde660"/><path d="m43.877 28.363c-4.021-3.056-6.72-7.479-7.597-12.451l-.837-4.748 10.557-5.631 10.557 5.63-.848 4.803c-.886 5.019-3.619 9.467-7.696 12.524l-1.997 1.498z" fill="#fdfefc"/><path d="m60 36v2.2c0 2.095-1.705 3.8-3.8 3.8h-.292c.061-.496.092-.997.092-1.5 0-2.448-.702-4.814-2.088-7.032l-1.697 1.059c1.184 1.896 1.785 3.906 1.785 5.973 0 4.975-3.613 9.688-9.665 12.61-.459.222-.678.752-.509 1.233l2.7 7.656h-6.879l-2.045-5.799c-.162-.457-.629-.739-1.107-.653-3.611.6-7.38.6-10.99 0-.482-.087-.946.196-1.107.653l-2.045 5.8h-6.879l2.7-7.656c.169-.481-.049-1.012-.508-1.233-3.055-1.475-5.558-3.448-7.238-5.707-.189-.255-.487-.404-.803-.404h-2.035l-3.59-6.508v-3.492h3.911c.405 0 .771-.244.925-.619.867-2.107 2.362-4.036 4.441-5.732.278-.228.414-.586.354-.939l-.388-2.326c-.366-2.194.327-4.449 1.824-6.063l6.089 4.735c.251.196.584.261.889.172 2.842-.815 5.854-1.228 8.955-1.228v-2c-3.109 0-6.139.393-9.013 1.167l-6.374-4.956c-.374-.291-.903-.277-1.265.029-2.423 2.077-3.603 5.323-3.078 8.471l.294 1.763c-1.914 1.652-3.359 3.506-4.305 5.526h-4.259c-.552 0-1 .447-1 1v4.75c0 .169.043.335.125.483l4 7.25c.175.319.511.517.875.517h2.132c1.701 2.146 4.053 4.033 6.862 5.508l-2.877 8.159c-.108.307-.061.646.126.911.189.265.493.422.818.422h9c.424 0 .802-.268.943-.667l2.005-5.685c3.294.467 6.687.467 9.984 0l2.004 5.685c.141.399.519.667.942.667h9c.324 0 .629-.157.816-.422.188-.266.234-.604.127-.911l-2.878-8.159c4.928-2.586 8.279-6.338 9.491-10.508h.705c3.198 0 5.8-2.602 5.8-5.8v-2.2z"/><path d="m24.773 45.067-1.549 1.266c1.907 2.333 4.729 3.667 7.751 3.667h.063c2.664-.018 5.161-1.062 7.032-2.942 1.874-1.882 2.896-4.375 2.879-7.021-.034-5.438-4.502-9.836-9.974-9.836h-.064c-2.663.017-5.16 1.062-7.032 2.941-1.874 1.883-2.896 4.376-2.879 7.022.01 1.499.349 2.938 1.007 4.275l1.795-.883c-.524-1.064-.794-2.211-.802-3.406-.014-2.108.802-4.096 2.297-5.598 1.497-1.504 3.495-2.339 5.627-2.353h.052c4.374 0 7.946 3.511 7.974 7.85.014 2.108-.802 4.096-2.296 5.598-1.497 1.503-3.495 2.339-5.627 2.353-2.437-.021-4.719-1.055-6.254-2.933z"/><path d="m27.577 35.627c-.375.38-.58.884-.577 1.418l.013 1.968c.004.534.215 1.035.595 1.41.381.377.886.617 1.418.577l3.974-.026.013 2.026-5.019.032.013 2 2-.013.006.987 2-.014-.006-.987 1.019-.005c1.104-.008 1.994-.911 1.986-2.012l-.012-2.027c-.008-1.099-.903-1.986-1.998-1.986h-.015l-3.975.024-.012-1.967 5.007-.032-.014-2-1.987.013-.006-1.02-2 .014.006 1.019-1.018.007c-.534.002-1.035.213-1.411.594z"/><path d="m14 37v1h2v-1c0-.552.449-1 1-1h1v-2h-1c-1.654 0-3 1.346-3 3z"/><path d="m31.356 16.78c1.096 6.217 4.469 11.744 9.495 15.563l4.543 3.452c.179.137.393.205.606.205.211 0 .422-.066.6-.2l4.413-3.31c5.096-3.821 8.513-9.382 9.62-15.655l1.352-7.661c.075-.427-.132-.853-.514-1.057l-15-8c-.295-.156-.646-.156-.941 0l-15 8c-.382.204-.589.63-.514 1.057zm14.644-14.646 13.889 7.407-1.225 6.946c-1.02 5.771-4.163 10.887-8.851 14.403l-3.81 2.856-3.941-2.995c-4.625-3.515-7.728-8.6-8.736-14.319l-1.215-6.892z"/><path d="m34.998 17.057c.815 4.625 3.324 8.738 7.064 11.58l3.332 2.531c.179.136.392.204.604.204.211 0 .422-.066.6-.2l3.236-2.428c3.791-2.843 6.333-6.979 7.157-11.647l.991-5.618c.075-.427-.132-.853-.514-1.057l-5.002-2.667-.941 1.766 4.361 2.325-.864 4.903c-.736 4.166-3.005 7.857-6.388 10.396l-2.633 1.975-2.73-2.074c-3.338-2.537-5.577-6.207-6.306-10.336l-.857-4.863 4.361-2.325-.941-1.766-5.001 2.667c-.382.204-.589.63-.514 1.057z"/><path d="m45.999 6.572 3.531 1.883.941-1.764-4.001-2.134c-.295-.158-.646-.157-.941-.001l-3.999 2.133.941 1.766z"/><path d="m44.962 21.999c.013.001.025.001.038.001.288 0 .562-.124.753-.342l7-8-1.506-1.316-6.188 7.071-2.259-3.013-1.6 1.2 3 4c.181.241.461.388.762.399z"/><path d="m45 10h2v2h-2z"/><path d="m45 24h2v2h-2z"/></svg>