<svg id="Layer_5" enable-background="new 0 0 64 64" height="512" viewBox="0 0 64 64" width="512" xmlns="http://www.w3.org/2000/svg"><g><g><g><path d="m20 48h4v14h-4z" fill="#ff826e"/></g><g><path d="m4 54h4v8h-4z" fill="#ff826e"/></g><g><path d="m12 46h4v16h-4z" fill="#ff826e"/></g><g><path d="m28 42h4v20h-4z" fill="#ff826e"/></g><g><path d="m58 56c1.1 0 2 .9 2 2v2c0 1.1-.9 2-2 2h-20c-1.1 0-2-.9-2-2v-2c0-1.1.9-2 2-2h2 4 4 4 4z" fill="#ffc729"/></g><g><path d="m58 44c1.1 0 2 .9 2 2v2c0 1.1-.9 2-2 2h-2-4-4-4-4-2c-1.1 0-2-.9-2-2v-2c0-1.1.9-2 2-2h2 4 4 4 4z" fill="#ffc729"/></g><g><path d="m58 50c1.1 0 2 .9 2 2v2c0 1.1-.9 2-2 2h-2-4-4-4-4-2c-1.1 0-2-.9-2-2v-2c0-1.1.9-2 2-2h2 4 4 4 4z" fill="#fcd770"/></g><g><path d="m56 38h2c1.1 0 2 .9 2 2v2c0 1.1-.9 2-2 2h-2-4-4-4-4-2c-1.1 0-2-.9-2-2v-2c0-1.1.9-2 2-2h2 4 4 4z" fill="#fcd770"/></g><g><path d="m10 10h-2c-3.31 0-6-2.69-6-6h2c3.31 0 6 2.69 6 6z" fill="#a0d468"/></g><g><path d="m30 2h4c0 2.21-.9 4.21-2.34 5.66-1.45 1.44-3.45 2.34-5.66 2.34h-4c0-2.21.9-4.21 2.34-5.66 1.45-1.44 3.45-2.34 5.66-2.34z" fill="#a0d468"/></g><g><path d="m26 16h4c0 1.1-.45 2.1-1.17 2.83-.73.72-1.73 1.17-2.83 1.17h-4c0-1.1.45-2.1 1.17-2.83.73-.72 1.73-1.17 2.83-1.17z" fill="#a0d468"/></g><g><path d="m10 22h-2c-3.31 0-6-2.69-6-6h2c3.31 0 6 2.69 6 6z" fill="#b4dd7f"/></g><g><path d="m14 14h4c0 1.1-.45 2.1-1.17 2.83-.73.72-1.73 1.17-2.83 1.17h-4c0-1.1.45-2.1 1.17-2.83.73-.72 1.73-1.17 2.83-1.17z" fill="#b4dd7f"/></g><g><path d="m22 26v2h-4c-2.21 0-4-1.79-4-4v-2h4c2.21 0 4 1.79 4 4z" fill="#b4dd7f"/></g><g><circle cx="48" cy="24" fill="#ffc729" r="14"/></g><g><circle cx="48" cy="24" fill="#fcd770" r="10"/></g><g><path d="m41 21-2.06 7.21-1.44 5.03-.5 1.76-3.5-3.5-11.5 11.5-5-5-12 12-3-3 8-8 7-7 5 5 8.5-8.5-3.5-3.5 7.05-2.01 4.2-1.21z" fill="#ff826e"/></g></g><g><path d="m48 27c-.552 0-1-.449-1-1h-2c0 1.302.839 2.402 2 2.816v2.184h2v-2.184c1.161-.414 2-1.514 2-2.816 0-1.654-1.346-3-3-3-.552 0-1-.449-1-1s.448-1 1-1 1 .449 1 1h2c0-1.302-.839-2.402-2-2.816v-2.184h-2v2.184c-1.161.414-2 1.514-2 2.816 0 1.654 1.346 3 3 3 .552 0 1 .449 1 1s-.448 1-1 1z"/><path d="m58 37h-2.548c4.503-2.591 7.548-7.442 7.548-13 0-8.271-6.729-15-15-15-7.579 0-13.964 5.747-14.861 13.206l-8.049 2.3 3.995 3.995-6.085 6.085v-5.586-3-5h3c2.757 0 5-2.243 5-5v-1h-5c-1.13 0-2.162.391-3 1.026v-5.026h3c4.963 0 9-4.038 9-9v-1h-5c-4.963 0-9 4.038-9 9v1 9 1 1.026c-.838-.635-1.87-1.026-3-1.026h-5v3c0 2.757 2.243 5 5 5h3v5.586l-4-4-6 6v-13.586-1-3h3c2.757 0 5-2.243 5-5v-1h-5c-1.13 0-2.162.391-3 1.026v-3.026-1c0-3.86-3.141-7-7-7h-3v1c0 3.86 3.141 7 7 7h1v6.111c-1.272-1.301-3.042-2.111-5-2.111h-3v1c0 3.86 3.141 7 7 7h1v15.586l-8.414 8.414 4.414 4.414 6-6v15.586h-2v-8h-6v10h30v-22h-6v20h-2v-14h-6v14h-2v-16h-5.586l5.586-5.586 5 5 11.5-11.5 3.995 3.995.503-1.759c.789.708 1.645 1.328 2.554 1.85h-2.552c-1.654 0-3 1.346-3 3v2c0 .771.301 1.468.78 2-.48.532-.78 1.229-.78 2v2c0 .771.301 1.468.78 2-.48.532-.78 1.229-.78 2v2c0 .771.301 1.468.78 2-.48.532-.78 1.229-.78 2v2c0 1.654 1.346 3 3 3h20c1.654 0 3-1.346 3-3v-2c0-.771-.301-1.468-.78-2 .48-.532.78-1.229.78-2v-2c0-.771-.301-1.468-.78-2 .48-.532.78-1.229.78-2v-2c0-.771-.301-1.468-.78-2 .48-.532.78-1.229.78-2v-2c0-1.654-1.346-3-3-3zm-32-20h2.829c-.413 1.164-1.525 2-2.829 2h-2.829c.413-1.164 1.525-2 2.829-2zm4-14h2.929c-.487 3.388-3.408 6-6.929 6h-2.929c.487-3.388 3.408-6 6.929-6zm-12 24c-1.654 0-3-1.346-3-3v-1h3c1.654 0 3 1.346 3 3v1zm-4-12h2.829c-.413 1.164-1.525 2-2.829 2h-2.829c.413-1.164 1.525-2 2.829-2zm-6-6c-2.415 0-4.435-1.721-4.899-4h.899c2.415 0 4.435 1.721 4.899 4zm0 12c-2.415 0-4.435-1.721-4.899-4h.899c2.415 0 4.435 1.721 4.899 4zm-1 40h-2v-6h2zm22-18h2v18h-2zm-8 6h2v12h-2zm-6-2v14h-2v-14zm18.5-16.914-11.5 11.5-5-5-12 12-1.586-1.586 13.586-13.586 5 5 9.914-9.914-3.005-3.005 10.635-3.039-3.038 10.635zm6.303-9.784c1.423-3.191 4.579-5.302 8.197-5.302 4.963 0 9 4.038 9 9s-4.037 9-9 9c-3.363 0-6.451-1.922-7.986-4.909l2.442-8.547zm-1.18 12.657.651-2.28c2.058 2.68 5.279 4.321 8.726 4.321 6.065 0 11-4.935 11-11s-4.935-11-11-11c-4.966 0-9.221 3.253-10.562 7.978l-2.194.627c1.135-6.051 6.474-10.605 12.756-10.605 7.168 0 13 5.832 13 13s-5.832 13-13 13c-3.543 0-6.923-1.475-9.377-4.041zm-1.623 7.041c0-.551.448-1 1-1h1v2h2v-2h2v2h2v-2h2v2h2v-2h2v2h2v-2h2v2h2v-2h1c.552 0 1 .449 1 1v2c0 .551-.448 1-1 1h-20c-.552 0-1-.449-1-1zm22 6v2c0 .551-.448 1-1 1h-20c-.552 0-1-.449-1-1v-2c0-.551.448-1 1-1h1v2h2v-2h2v2h2v-2h2v2h2v-2h2v2h2v-2h2v2h2v-2h1c.552 0 1 .449 1 1zm0 6v2c0 .551-.448 1-1 1h-20c-.552 0-1-.449-1-1v-2c0-.551.448-1 1-1h1v2h2v-2h2v2h2v-2h2v2h2v-2h2v2h2v-2h2v2h2v-2h1c.552 0 1 .449 1 1zm0 8c0 .551-.448 1-1 1h-20c-.552 0-1-.449-1-1v-2c0-.551.448-1 1-1h1v2h2v-2h2v2h2v-2h2v2h2v-2h2v2h2v-2h2v2h2v-2h1c.552 0 1 .449 1 1z"/></g></g></svg>