<svg id="Capa_1" enable-background="new 0 0 512 512" height="512" viewBox="0 0 512 512" width="512" xmlns="http://www.w3.org/2000/svg"><g><g><path clip-rule="evenodd" d="m286 362.663c-8.943 17.647-45.594 36.654-75.885 42.15l54.877 32.859 30.632-24.672c54.962 6.77 73.415-25.522 68.873-53.99-2.896-17.959-3.293-26.004 5.99-37.448 5.252-6.458 11.356-13.143 21.179-12.237l-16.154-15.495c-19.56-18.809-56.296-13.597-59.192 23.709-24.33-41.045-46.729-.482-82.33-38.581 2.811 42.348 5.99 62.913 39.319 78.861 4.941 2.38 9.057 3.881 12.691 4.844z" fill="#fff" fill-rule="evenodd"/></g><g><path clip-rule="evenodd" d="m64.079 205.735c0 46.2 34.465 41.527 33.272 95.488v45.917h55.927c3.719-78.153 68.39-140.386 147.625-140.386 2.328 0 4.684.057 6.984.17v-72.912c0 13.54-11.1 24.616-24.642 24.616-13.57 0-24.67-11.076-24.67-24.616v10.311c0 15.466-12.69 28.128-28.162 28.128-15.501 0-28.191-12.662-28.191-28.128v-10.764c7.239-6.43 11.384-15.24 11.384-26.627 0-8.385-3.889-12.379-11.384-14.333-6.899-1.756-16.835-1.756-29.582-1.756h-26.743-56.324-10.39c-8.29 0-15.103 6.798-15.103 15.126v99.766z" fill="#f2b394" fill-rule="evenodd"/></g><g><path clip-rule="evenodd" d="m89.573 38.099v52.744h56.325v-52.744c0-15.466-12.662-28.1-28.162-28.1s-28.163 12.634-28.163 28.1z" fill="#f2b394" fill-rule="evenodd"/></g><g><path clip-rule="evenodd" d="m145.898 38.099v52.744h26.743c12.747 0 22.683 0 29.582 1.756v-54.5c0-15.466-12.662-28.1-28.162-28.1s-28.163 12.634-28.163 28.1z" fill="#f2b394" fill-rule="evenodd"/></g><g><path clip-rule="evenodd" d="m202.223 38.099v54.5c7.495 1.955 11.384 5.949 11.384 14.333 0 11.387-4.145 20.197-11.384 26.627v10.764c0 15.466 12.69 28.128 28.191 28.128 15.472 0 28.162-12.662 28.162-28.128v-10.311-75.263-20.65c0-15.466-12.69-28.1-28.162-28.1-15.501 0-28.191 12.634-28.191 28.1z" fill="#f2b394" fill-rule="evenodd"/></g><g><path clip-rule="evenodd" d="m258.576 58.749v75.263c0 13.54 11.1 24.616 24.67 24.616 13.542 0 24.642-11.076 24.642-24.616v-29.402-45.86c0-13.54-11.1-24.616-24.642-24.616-13.57 0-24.67 11.075-24.67 24.615z" fill="#f2b394" fill-rule="evenodd"/></g><g><path clip-rule="evenodd" d="m75.946 368.47v34.275h85.367c-5.309-15.183-8.205-31.527-8.205-48.551 0-2.351.057-4.702.17-7.053h-55.926c-11.782-.001-21.406 9.602-21.406 21.329z" fill="#bfdbff" fill-rule="evenodd"/></g><g><path clip-rule="evenodd" d="m75.946 402.745v98.916h224.646c-64.444-.142-119.179-41.413-139.279-98.916z" fill="#80b6ff" fill-rule="evenodd"/></g><g><path clip-rule="evenodd" d="m300.905 206.755c-79.235 0-143.906 62.233-147.625 140.386-.114 2.351-.17 4.702-.17 7.053 0 17.024 2.896 33.368 8.205 48.551 20.1 57.503 74.835 98.774 139.279 98.916h.312.284c81.478-.17 147.483-66.114 147.483-147.467 0-79.087-62.429-143.615-140.784-147.269-2.3-.114-4.656-.17-6.984-.17zm-66.914 72.204c35.6 38.099 58-2.464 82.33 38.581 2.896-37.306 39.632-42.518 59.192-23.709l16.154 15.495c-9.823-.906-15.927 5.779-21.179 12.237-9.283 11.444-8.886 19.489-5.99 37.448 4.542 28.468-13.911 60.76-68.873 53.99l-30.632 24.672-54.877-32.859c30.292-5.495 66.942-24.502 75.885-42.15-3.634-.963-7.75-2.464-12.69-4.844-33.33-15.948-36.51-36.513-39.32-78.861z" fill="#a0e5a5" fill-rule="evenodd"/></g><g><path d="m456.186 331.398c-4.98-33.608-20.371-64.111-44.512-88.213-26.242-26.184-59.5-41.19-93.786-45.037v-64.136-29.402-45.861c0-19.087-15.54-34.615-34.642-34.615-5.779 0-11.227 1.427-16.023 3.934-4.422-16.155-19.245-28.068-36.81-28.068-11.151 0-21.199 4.794-28.187 12.422-6.983-7.628-17.023-12.422-28.165-12.422-11.141 0-21.18 4.792-28.162 12.418-6.984-7.626-17.023-12.418-28.163-12.418-21.043 0-38.162 17.091-38.162 38.099v42.744h-.391c-13.842 0-25.103 11.271-25.103 25.126v99.766c0 25.367 9.516 38.064 17.911 49.267 8.538 11.392 15.911 21.231 15.364 46.001-.001.073-.002.147-.002.221v37.555c-12.427 4.177-21.406 15.904-21.406 29.692v133.191c0 5.523 4.477 9.999 9.999 9.999 5.523 0 9.999-4.477 9.999-9.999v-88.916h67.508c7.833 19.66 19.673 37.703 35.118 53.106 24.118 24.079 54.658 39.437 88.319 44.413 7.849 1.161 15.696 1.736 23.501 1.736 25 0 49.531-5.915 72.004-17.481 4.91-2.527 6.842-8.557 4.315-13.467-2.527-4.909-8.556-6.841-13.467-4.315-53.464 27.517-117.98 17.454-160.545-25.043-26.015-25.944-40.344-60.445-40.349-97.148-.004-36.716 14.326-71.237 40.352-97.206 53.706-53.613 141.114-53.612 194.845 0 42.587 42.519 52.65 106.914 25.042 160.24-2.539 4.904-.622 10.938 4.282 13.477 4.905 2.539 10.938.622 13.477-4.282 15.245-29.445 20.722-62.425 15.839-95.378zm-172.94-287.265c8.074 0 14.643 6.557 14.643 14.616v45.861 29.403c0 8.06-6.568 14.616-14.643 14.616-8.09 0-14.671-6.557-14.671-14.616v-75.264c0-8.059 6.582-14.616 14.671-14.616zm-52.833-24.134c10.015 0 18.163 8.12 18.163 18.101v20.65 75.263 10.311c0 9.996-8.148 18.128-18.163 18.128-10.031 0-18.191-8.132-18.191-18.128v-6.571c7.412-8.075 11.385-18.477 11.385-30.82 0-9.672-3.915-16.831-11.385-21.045v-47.789c0-9.98 8.161-18.1 18.191-18.1zm-56.352 0c10.015 0 18.163 8.12 18.163 18.101v43.098c-5.74-.35-12.252-.354-19.582-.354h-16.743v-42.745c-.001-9.98 8.147-18.1 18.162-18.1zm-74.488 18.1c0-9.981 8.148-18.101 18.163-18.101s18.163 8.12 18.163 18.101v42.744h-36.326zm-13.627 354.646v-24.275c0-6.248 5.117-11.33 11.406-11.33h45.03c.197 12.152 1.758 24.08 4.625 35.606h-61.061zm102.628-149.56c-25.661 25.604-41.385 58.472-45.267 93.956h-35.956v-35.81c.673-31.6-9.968-45.795-19.357-58.323-7.775-10.374-13.916-18.568-13.916-37.273v-99.766c0-2.779 2.337-5.127 5.104-5.127h93.458c12.35 0 22.104 0 27.657 1.614 2.936.853 3.31 1.158 3.31 4.476 0 25.545-28.803 29.813-45.972 30.084-.024 0-.049 0-.073.001-1.693.021-27.08.026-40.338.026-5.523 0-9.999 4.477-9.999 9.999 0 5.523 4.477 9.999 9.999 9.999 18.601 0 34.317 22.571 34.317 49.288 0 5.523 4.477 9.999 9.999 9.999 5.523 0 9.999-4.477 9.999-9.999 0-17.983-5.313-34.998-14.96-47.908-.359-.48-.732-.934-1.099-1.399 1.57-.004 2.199-.008 2.47-.011v.001c13.49-.212 25.183-2.383 34.824-6.273 3.066 17.977 18.771 31.711 37.639 31.711 14.383 0 26.928-7.993 33.432-19.764 5.54 3.749 12.219 5.941 19.401 5.941 5.231 0 10.192-1.171 14.643-3.255v31.798c-39.653.554-79.133 15.885-109.315 46.015z"/><path d="m400.762 313.477c1.766-3.866.893-8.427-2.174-11.369l-16.145-15.485c-13.148-12.643-32.173-16.804-48.469-10.599-9.825 3.74-17.399 10.785-22.151 20.232-10.238-8.533-21.115-9.338-33.303-9.1-12.213.238-22.771.442-37.223-15.024-2.886-3.088-7.401-4.027-11.282-2.348-3.879 1.681-6.281 5.619-6.002 9.837 2.876 43.334 6.382 68.75 44.978 87.218.202.096.39.179.589.273-13.155 11.702-38.785 23.787-61.251 27.863-4.098.744-7.307 3.95-8.053 8.048s1.127 8.23 4.701 10.37l54.877 32.858c1.589.952 3.366 1.42 5.135 1.42 2.232 0 4.454-.747 6.274-2.212l27.408-22.075c33.488 3.079 51.939-7.92 61.604-17.936 11.864-12.295 17.002-29.796 14.092-48.03-2.743-17.012-2.71-21.428 3.876-29.547 5.647-6.944 8.56-8.95 12.502-8.589 4.226.392 8.252-1.938 10.017-5.805zm-38.04 1.785c-12.232 15.078-11.045 27.052-8.099 45.323 1.907 11.954-1.277 23.245-8.737 30.976-9.904 10.265-26.861 14.246-49.039 11.514-2.685-.33-5.388.44-7.495 2.137l-25.203 20.3-28.719-17.196c22.1-7.745 44.23-20.394 55.252-34.555 4.065.538 7.944.63 12.126.63 5.523 0 9.999-4.477 9.999-9.999s-4.477-9.999-9.999-9.999c-4.97 0-8.914-.007-13.894-1.285-.223-.068-.447-.127-.672-.179-3.001-.824-6.393-2.108-10.614-4.129-22.014-10.534-28.53-22.102-31.695-47.881 12.684 6.625 23.954 6.41 32.976 6.232 12.046-.232 19.38-.37 28.406 14.714.242.503.518.987.838 1.441 1.068 1.874 2.16 3.95 3.289 6.277 2.413 4.968 8.395 7.041 13.363 4.629s7.04-8.395 4.629-13.363c-.934-1.923-1.87-3.733-2.809-5.446 1.506-10.384 6.569-17.682 14.466-20.689 8.963-3.414 20.011-.87 27.501 6.333l4.198 4.027c-4.464 3.298-7.739 7.324-10.068 10.188z"/><path d="m409.069 449.859c-4.94-2.471-10.961-.439-13.43 4.5-2.47 4.94-.468 10.946 4.472 13.416 1.435.718 2.961 1.058 4.464 1.058 3.668 0 7.2-2.026 8.952-5.529l.028-.057c2.47-4.94.454-10.918-4.486-13.388z"/></g></g></svg>