<svg id="svg" version="1.1" xmlns="http://www.w3.org/2000/svg" xmlns:xlink="http://www.w3.org/1999/xlink" width="400" height="400" viewBox="0, 0, 400,400"><g id="svgg"><path id="path0" d="M175.000 1.185 C 89.811 11.734,20.167 76.498,3.603 160.573 C -24.082 301.098,98.902 424.082,239.427 396.397 C 350.948 374.426,421.487 263.093,394.445 151.729 C 370.689 53.894,275.683 -11.282,175.000 1.185 M113.351 117.641 C 116.106 131.210,118.543 142.615,118.767 142.984 C 118.991 143.353,161.257 148.706,212.692 154.880 C 264.127 161.054,306.456 166.352,306.757 166.653 C 307.058 166.954,302.028 187.324,295.579 211.920 L 283.854 256.641 212.540 256.840 L 141.226 257.040 141.654 259.184 C 141.890 260.363,142.704 264.922,143.462 269.315 L 144.841 277.301 210.506 277.518 L 276.172 277.734 281.250 280.152 C 306.880 292.354,302.255 328.922,274.388 334.404 C 255.780 338.065,237.532 320.067,241.174 301.645 L 241.963 297.656 199.435 297.656 L 156.907 297.656 157.466 300.195 C 162.518 323.137,137.804 342.365,116.698 331.914 C 94.015 320.682,96.416 286.679,120.424 279.146 C 124.199 277.962,124.869 277.483,124.582 276.172 C 124.394 275.313,123.157 268.638,121.832 261.339 C 119.851 250.427,93.944 120.905,92.570 115.039 C 92.164 113.307,91.977 113.281,79.673 113.281 L 67.188 113.281 67.188 103.561 L 67.188 93.840 70.508 93.541 C 72.334 93.376,81.594 93.180,91.085 93.105 L 108.343 92.969 113.351 117.641 M123.990 299.231 C 117.401 304.414,121.008 314.844,129.390 314.844 C 137.372 314.844,141.223 305.193,135.339 299.936 C 132.157 297.093,127.107 296.779,123.990 299.231 M263.341 300.060 C 257.714 305.688,261.547 314.844,269.531 314.844 C 272.717 314.844,273.698 314.463,275.721 312.440 C 281.349 306.812,277.515 297.656,269.531 297.656 C 266.345 297.656,265.364 298.037,263.341 300.060 " stroke="none" fill="#000000" fill-rule="evenodd"></path></g></svg>