<svg id="svg" version="1.1" xmlns="http://www.w3.org/2000/svg" xmlns:xlink="http://www.w3.org/1999/xlink" width="400" height="400" viewBox="0, 0, 400,400"><g id="svgg"><path id="path0" d="M193.117 5.489 C 187.355 9.002,2.552 171.812,1.277 174.498 C -2.732 182.946,1.858 192.578,10.857 194.600 C 17.025 195.986,19.730 194.663,30.664 184.918 L 36.719 179.522 36.719 282.288 C 36.719 390.864,36.606 387.577,40.479 391.671 C 44.979 396.427,32.973 396.094,200.000 396.094 C 367.027 396.094,355.021 396.427,359.521 391.671 C 363.394 387.577,363.281 390.862,363.281 282.327 L 363.281 179.599 370.481 185.960 C 379.147 193.617,381.199 194.754,386.348 194.754 C 396.855 194.754,403.316 184.178,398.723 174.498 C 397.448 171.812,212.645 9.002,206.883 5.489 C 203.364 3.343,196.636 3.343,193.117 5.489 M267.919 96.053 L 335.156 154.997 335.156 261.483 L 335.156 367.969 297.279 367.969 L 259.401 367.969 259.193 302.416 L 258.984 236.863 256.585 233.861 C 251.763 227.827,254.723 228.127,200.000 228.127 C 145.277 228.127,148.237 227.827,143.415 233.861 L 141.016 236.863 140.807 302.416 L 140.599 367.969 102.721 367.969 L 64.844 367.969 64.844 261.484 L 64.844 155.000 132.227 95.888 C 169.287 63.377,199.850 36.852,200.145 36.943 C 200.440 37.035,230.938 63.634,267.919 96.053 M179.565 118.706 C 166.847 122.697,165.212 140.067,177.087 145.028 C 180.751 146.559,219.249 146.559,222.913 145.028 C 233.146 140.753,233.693 125.886,223.828 120.170 C 220.503 118.244,184.800 117.062,179.565 118.706 M231.250 312.109 L 231.250 367.969 200.000 367.969 L 168.750 367.969 168.750 312.109 L 168.750 256.250 200.000 256.250 L 231.250 256.250 231.250 312.109 " stroke="none" fill="#000000" fill-rule="evenodd"></path></g></svg>