<svg id="svg" version="1.1" xmlns="http://www.w3.org/2000/svg" xmlns:xlink="http://www.w3.org/1999/xlink" width="400" height="400" viewBox="0, 0, 400,400"><g id="svgg"><path id="path0" d="M166.191 4.495 C -6.836 164.429,-0.507 158.185,0.138 168.309 C 0.946 180.997,5.247 183.130,30.646 183.437 L 49.964 183.670 50.177 246.327 L 50.391 308.984 52.842 314.159 C 61.110 331.609,67.056 333.594,111.059 333.594 C 150.067 333.594,150.000 333.609,150.000 325.000 C 150.000 316.443,149.841 316.406,112.825 316.406 C 79.306 316.406,77.848 316.254,72.990 312.249 C 66.890 307.221,67.224 311.480,67.205 238.438 C 67.186 169.320,67.270 170.957,63.605 167.912 C 62.539 167.026,57.723 166.717,40.165 166.406 L 18.067 166.016 95.770 93.914 C 138.507 54.258,173.960 21.625,174.556 21.397 C 175.227 21.139,186.911 31.459,205.203 48.463 C 240.156 80.957,240.027 80.863,245.559 78.034 C 249.897 75.815,249.964 75.447,249.983 53.711 L 250.000 33.594 266.406 33.594 L 282.813 33.594 282.813 75.730 C 282.813 99.929,283.123 118.684,283.542 119.785 C 283.943 120.840,294.989 131.674,308.089 143.860 L 331.907 166.016 309.784 166.406 C 281.490 166.906,282.498 166.221,282.946 184.638 C 283.261 197.586,284.623 200.000,291.613 200.000 C 297.767 200.000,300.000 197.218,300.000 189.551 L 300.000 183.670 319.336 183.437 C 344.755 183.130,349.054 180.999,349.862 168.309 C 350.455 158.995,350.452 158.990,323.772 134.246 L 300.000 112.199 300.000 66.986 C 300.000 37.470,299.721 21.250,299.196 20.269 C 297.230 16.597,295.599 16.406,266.228 16.406 C 230.805 16.406,233.414 14.881,232.813 35.938 L 232.422 49.609 215.625 33.973 C 206.387 25.373,194.364 14.211,188.908 9.168 L 178.989 -0.000 175.021 -0.000 C 171.276 -0.000,170.783 0.251,166.191 4.495 M287.891 233.909 C 279.840 237.647,260.296 268.279,254.330 286.509 L 252.225 292.940 249.043 291.317 C 240.066 286.737,223.405 281.579,211.719 279.761 C 183.942 275.442,181.653 276.860,183.896 296.996 C 190.190 353.518,219.426 386.977,271.875 397.684 C 313.792 406.241,361.292 386.435,382.335 351.627 C 397.868 325.931,405.340 282.818,395.007 278.501 C 387.445 275.341,351.532 282.753,335.715 290.738 C 333.172 292.021,331.027 292.960,330.948 292.825 C 330.869 292.689,329.845 289.555,328.673 285.860 C 324.611 273.054,316.525 258.556,305.841 244.922 C 297.090 233.755,293.270 231.412,287.891 233.909 M297.480 263.477 C 322.840 300.778,322.171 336.690,295.441 372.873 C 291.362 378.394,291.824 378.461,287.015 371.667 C 260.616 334.374,260.799 297.722,287.570 260.916 C 292.366 254.322,291.020 253.974,297.480 263.477 M214.453 298.138 C 223.292 299.904,234.255 303.721,241.797 307.658 L 248.828 311.328 249.411 319.922 C 250.751 339.684,257.281 358.938,268.291 375.586 C 269.783 377.842,270.869 379.688,270.703 379.688 C 268.670 379.688,252.066 373.355,246.750 370.552 C 222.237 357.627,205.828 331.988,201.931 300.523 L 201.367 295.969 205.176 296.507 C 207.270 296.803,211.445 297.537,214.453 298.138 M382.031 296.972 C 382.031 299.911,377.771 318.066,375.711 323.907 C 366.013 351.403,345.782 370.365,317.902 378.091 L 312.689 379.536 317.588 371.378 C 327.588 354.728,332.595 339.116,333.457 321.896 L 333.984 311.370 341.234 307.695 C 354.473 300.983,382.031 293.740,382.031 296.972 " stroke="none" fill="#000000" fill-rule="evenodd"></path></g></svg>