<svg id="svg" version="1.1" xmlns="http://www.w3.org/2000/svg" xmlns:xlink="http://www.w3.org/1999/xlink" width="400" height="400" viewBox="0, 0, 400,400"><g id="svgg"><path id="path0" d="M150.559 1.608 C 126.485 7.525,107.357 26.780,101.569 50.924 C 100.210 56.590,100.010 60.149,100.005 78.711 L 100.000 100.000 77.284 100.000 L 54.567 100.000 52.284 102.284 L 50.000 104.567 50.000 250.000 L 50.000 395.433 52.284 397.716 L 54.567 400.000 200.000 400.000 L 345.433 400.000 347.716 397.716 L 350.000 395.433 350.000 250.000 L 350.000 104.567 347.716 102.284 L 345.433 100.000 314.586 100.000 L 283.740 100.000 283.412 81.836 C 282.655 39.853,261.833 17.007,224.156 16.818 L 211.984 16.757 206.969 13.010 C 191.451 1.416,169.440 -3.033,150.559 1.608 M178.307 18.697 C 181.553 19.527,186.374 21.299,189.021 22.635 L 193.834 25.065 189.227 28.456 C 172.751 40.585,166.444 55.994,166.420 84.180 L 166.406 100.000 141.797 100.000 L 117.188 100.000 117.199 80.273 C 117.216 51.680,119.378 44.628,132.003 32.003 C 144.960 19.047,161.307 14.349,178.307 18.697 M234.721 35.145 C 256.825 40.798,266.363 56.153,266.393 86.133 L 266.406 100.000 250.070 100.000 L 233.734 100.000 233.398 77.148 C 233.028 52.060,232.476 48.501,227.350 38.169 L 225.080 33.594 226.868 33.594 C 227.852 33.594,231.385 34.292,234.721 35.145 M210.809 44.727 C 215.553 54.397,216.406 60.021,216.406 81.608 L 216.406 100.000 200.000 100.000 L 183.594 100.000 183.594 85.672 C 183.594 61.767,188.278 50.275,201.746 41.136 C 207.263 37.393,207.200 37.368,210.809 44.727 M100.000 147.708 C 100.000 167.146,100.292 178.773,100.804 179.731 C 102.679 183.234,109.724 184.747,113.112 182.374 C 117.102 179.579,117.188 178.838,117.188 146.914 L 117.188 117.188 166.797 117.188 L 216.406 117.188 216.406 147.734 L 216.406 178.281 219.062 180.937 C 221.240 183.115,222.310 183.594,225.000 183.594 C 227.690 183.594,228.760 183.115,230.938 180.937 L 233.594 178.281 233.594 147.734 L 233.594 117.188 258.203 117.188 L 282.813 117.188 282.813 250.000 L 282.813 382.813 175.000 382.813 L 67.188 382.813 67.188 250.000 L 67.188 117.188 83.594 117.188 L 100.000 117.188 100.000 147.708 M332.813 250.000 L 332.813 382.813 316.406 382.813 L 300.000 382.813 300.000 250.000 L 300.000 117.188 316.406 117.188 L 332.813 117.188 332.813 250.000 " stroke="none" fill="#000000" fill-rule="evenodd"></path></g></svg>